<svg width="24" height="24" viewBox="0 0 24 24" fill="none" xmlns="http://www.w3.org/2000/svg">
<path d="M20.7069 6.29303C20.8944 6.48056 20.9997 6.73487 20.9997 7.00003C20.9997 7.26519 20.8944 7.5195 20.7069 7.70703L10.7069 17.707C10.5194 17.8945 10.2651 17.9998 9.99992 17.9998C9.73475 17.9998 9.48045 17.8945 9.29292 17.707L4.29292 12.707C4.11076 12.5184 4.00997 12.2658 4.01224 12.0036C4.01452 11.7414 4.11969 11.4906 4.3051 11.3052C4.49051 11.1198 4.74132 11.0146 5.00352 11.0124C5.26571 11.0101 5.51832 11.1109 5.70692 11.293L9.99992 15.586L19.2929 6.29303C19.4804 6.10556 19.7348 6.00024 19.9999 6.00024C20.2651 6.00024 20.5194 6.10556 20.7069 6.29303Z" fill="black"/>
</svg>
