<svg width="24" height="24" viewBox="0 0 24 24" fill="none" xmlns="http://www.w3.org/2000/svg">
<path d="M20.468 1.99997H3.53201C3.34134 1.99733 3.15202 2.03232 2.97489 2.10294C2.79776 2.17357 2.6363 2.27843 2.49976 2.41154C2.36321 2.54465 2.25426 2.70338 2.17915 2.87866C2.10403 3.05393 2.06423 3.24229 2.06201 3.43297V20.568C2.07301 21.368 2.73101 22.01 3.53201 22H20.468C20.6586 22.0026 20.8478 21.9677 21.0249 21.8971C21.202 21.8265 21.3634 21.7218 21.4999 21.5888C21.6364 21.4557 21.7454 21.2971 21.8206 21.122C21.8958 20.9468 21.9357 20.7586 21.938 20.568V3.43297C21.9358 3.24221 21.896 3.05376 21.8208 2.87842C21.7456 2.70308 21.6366 2.54431 21.4999 2.41118C21.3633 2.27806 21.2017 2.17322 21.0244 2.10265C20.8472 2.03209 20.6578 1.99719 20.467 1.99997H20.468ZM8.08801 18.742H5.08601V9.71097H8.08801V18.742ZM6.83301 8.47997C6.75105 8.48435 6.66889 8.48368 6.58701 8.47797H6.56701C6.35157 8.49223 6.1355 8.46176 5.9324 8.38847C5.72931 8.31518 5.54357 8.20065 5.38688 8.0521C5.23019 7.90354 5.10594 7.72417 5.02193 7.52527C4.93793 7.32636 4.89599 7.11223 4.89876 6.89633C4.90153 6.68043 4.94894 6.46744 5.03802 6.27075C5.12709 6.07406 5.25591 5.89794 5.41635 5.75345C5.5768 5.60896 5.76541 5.49923 5.97032 5.43117C6.17523 5.36311 6.392 5.33819 6.60701 5.35797C7.02101 5.328 7.42997 5.46372 7.7439 5.73527C8.05784 6.00683 8.25104 6.39197 8.28101 6.80597C8.31098 7.21997 8.17526 7.62893 7.90371 7.94286C7.63216 8.2568 7.24701 8.45 6.83301 8.47997ZM18.912 18.742H15.91V13.912C15.91 12.697 15.476 11.869 14.39 11.869C14.0514 11.8706 13.7215 11.977 13.4458 12.1736C13.17 12.3702 12.9619 12.6473 12.85 12.967C12.7737 13.2031 12.7398 13.451 12.75 13.699V18.742H9.75001C9.75001 18.739 9.79001 10.558 9.75001 9.71197H12.752V10.992C13.0234 10.5197 13.419 10.1307 13.8959 9.86753C14.3728 9.6043 14.9127 9.47683 15.457 9.49897C17.432 9.49897 18.913 10.79 18.913 13.564L18.912 18.742Z" fill="#EB5E28"/>
</svg>
