<svg width="22" height="24" viewBox="0 0 22 24" fill="none" xmlns="http://www.w3.org/2000/svg">
<g clip-path="url(#clip0_2690_16)">
<path d="M3.569 2C1.96809 2 0.666504 3.28125 0.666504 4.85714V19.1429C0.666504 20.7187 1.96809 22 3.569 22H18.0815C19.6824 22 20.984 20.7187 20.984 19.1429V4.85714C20.984 3.28125 19.6824 2 18.0815 2H3.569ZM17.0429 5.75L12.3354 11.0446L17.8729 18.25H13.5373L10.145 13.8795L6.25834 18.25H4.10415L9.13816 12.5848L3.8275 5.75H8.27195L11.3422 9.74554L14.8887 5.75H17.0429ZM15.3286 16.9821L7.62342 6.95089H6.33997L14.1314 16.9821H15.3241H15.3286Z" fill="#EB5E28"/>
</g>
<defs>
<clipPath id="clip0_2690_16">
<rect width="21.3333" height="24" fill="white"/>
</clipPath>
</defs>
</svg>
